<svg width="140" height="467" viewBox="0 0 140 467" fill="none" xmlns="http://www.w3.org/2000/svg">
<g filter="url(#filter0_d_771_456)">
<path d="M45.0302 46.6778C42.1636 58.1436 40 75.3223 40 80H70V30H69.9988C69.5 30.0001 69.4946 30.0001 62.5303 30.1775C54.0182 30.3944 47.5303 36.6778 45.0302 46.6778Z" fill="#FDFDFD"/>
<path d="M94.9698 46.6778C97.8364 58.1436 100 75.3223 100 80H70V30H70.0012C70.5 30.0001 70.5054 30.0001 77.4697 30.1775C85.9818 30.3944 92.4697 36.6778 94.9698 46.6778Z" fill="#FDFDFD"/>
<path d="M40 80H100V212C100 216.418 96.4183 220 92 220H48C43.5817 220 40 216.418 40 212V80Z" fill="#FDFDFD"/>
<path d="M70.001 37C70.4174 37.0001 70.422 37.0003 76.2362 37.1245C87.3502 37.2763 88.7601 41.9743 90.8474 48.9743C90.8994 49.1488 90.9485 51.8245 91 52H49C49.0515 51.8245 49.1006 49.1488 49.1526 48.9743C51.2399 41.9743 52.6498 37.2763 63.7638 37.1245C69.578 37.0003 69.5826 37.0001 69.999 37H70.001Z" fill="#F6F6F6"/>
<rect x="40" y="223" width="60" height="194" rx="8" fill="#FDFDFD"/>
</g>
<defs>
<filter id="filter0_d_771_456" x="0" y="0" width="140" height="467" filterUnits="userSpaceOnUse" color-interpolation-filters="sRGB">
<feFlood flood-opacity="0" result="BackgroundImageFix"/>
<feColorMatrix in="SourceAlpha" type="matrix" values="0 0 0 0 0 0 0 0 0 0 0 0 0 0 0 0 0 0 127 0" result="hardAlpha"/>
<feOffset dy="10"/>
<feGaussianBlur stdDeviation="20"/>
<feComposite in2="hardAlpha" operator="out"/>
<feColorMatrix type="matrix" values="0 0 0 0 0 0 0 0 0 0 0 0 0 0 0 0 0 0 0.07 0"/>
<feBlend mode="normal" in2="BackgroundImageFix" result="effect1_dropShadow_771_456"/>
<feBlend mode="normal" in="SourceGraphic" in2="effect1_dropShadow_771_456" result="shape"/>
</filter>
</defs>
</svg>
